<svg xmlns="http://www.w3.org/2000/svg" viewBox="0 0 32 32" fill="currentColor">
  <path d="M5.333 28h12.827c0.769 0 1.53-0.166 2.229-0.487s1.32-0.791 1.821-1.375l6.803-7.936c0.142-0.166 0.242-0.364 0.29-0.578s0.042-0.435-0.016-0.646c-0.058-0.211-0.167-0.404-0.318-0.563s-0.338-0.278-0.545-0.347l-2.624-0.875c-0.634-0.206-1.309-0.253-1.966-0.136s-1.274 0.394-1.798 0.806l-4.247 3.396-0.823-1.647c-0.441-0.888-1.121-1.634-1.964-2.155s-1.815-0.795-2.806-0.792h-6.861c-1.471 0-2.667 1.196-2.667 2.667v8c0 1.471 1.196 2.667 2.667 2.667zM5.333 17.333h6.861c1.017 0 1.931 0.564 2.385 1.473l0.596 1.193h-5.843v2.667h8.019c0.205-0.003 0.407-0.053 0.589-0.147l0.004-0.001 0.005-0.003h0.004l0.003-0.001h0.005l0.001-0.001c0.012 0.004 0.004-0.001 0.004-0.001 0.013 0 0.003-0.001 0.003-0.001h0.001l0.003-0.001 0.004-0.001 0.005-0.003 0.004-0.001 0.003-0.001c0.004 0 0.003-0.001 0.003-0.001l0.004-0.003 0.005-0.003 0.004-0.001 0.003-0.001h0.001l0.003-0.001 0.004-0.001 0.003-0.001c0.012-0.001 0.004-0.001 0.004-0.001l0.003-0.001c0.051-0.031 0.1-0.066 0.147-0.104l5.528-4.423c0.349-0.277 0.831-0.364 1.253-0.223l0.743 0.248-5.511 6.431c-0.253 0.288-0.565 0.519-0.915 0.677s-0.728 0.24-1.112 0.241h-12.827v-8zM21.311 2.667c-0.217 0.003-1.341 0.052-2.644 0.94-1.268-0.864-2.365-0.933-2.624-0.939l-0.040-0.001h-0.005c-1.068 0-2.073 0.417-2.825 1.171-0.755 0.756-1.172 1.76-1.172 2.829s0.417 2.073 1.148 2.805l4.552 4.781c0.125 0.13 0.275 0.233 0.442 0.304s0.345 0.107 0.525 0.107c0.181-0 0.359-0.037 0.525-0.107s0.316-0.175 0.441-0.305l4.528-4.757c0.756-0.755 1.172-1.759 1.172-2.828s-0.417-2.073-1.171-2.828c-0.37-0.373-0.811-0.668-1.296-0.869s-1.006-0.304-1.531-0.303h-0.025zM22.667 6.667c0 0.356-0.139 0.691-0.415 0.967l-3.585 3.767-3.609-3.791c-0.252-0.252-0.391-0.587-0.391-0.943s0.139-0.691 0.392-0.944c0.241-0.245 0.569-0.385 0.913-0.389 0.033 0.001 0.669 0.043 1.423 0.647 0.108 0.087 0.217 0.185 0.329 0.296l0.943 0.943 0.943-0.943c0.112-0.111 0.221-0.209 0.329-0.296 0.705-0.567 1.301-0.637 1.403-0.645 0.174-0 0.346 0.034 0.506 0.101s0.306 0.165 0.428 0.288c0.252 0.252 0.391 0.587 0.391 0.943z"/>
</svg>
